<svg width="34" height="22" viewBox="0 0 34 22" fill="none" xmlns="http://www.w3.org/2000/svg">
<path id="AgaBuryatia" d="M6.39636 21.192C3.03515 20.8345 0.24602 20.4055 0.10299 20.2625C-0.0400402 20.191 0.746644 18.9755 1.81937 17.617C3.67877 15.2575 3.89326 15.186 5.9672 16.044C7.89811 16.8305 8.39875 16.759 10.8303 15.1145C12.8327 13.756 13.5479 12.8265 13.5479 11.3965C13.5479 9.25151 14.549 7.82153 17.3381 6.10553C18.4109 5.46203 19.2691 4.31803 19.2691 3.60303C19.2691 2.17303 21.9866 0.671509 24.4896 0.671509C25.3478 0.671509 27.2787 1.02903 28.852 1.45803L31.5697 2.17303L31.2121 5.53354C30.926 8.32204 31.069 9.18004 32.3563 10.5385C33.3575 11.5395 33.6436 12.326 33.143 12.6835C32.7139 12.9695 30.9975 14.328 29.2096 15.758C26.063 18.332 16.5515 22.193 13.9055 21.9785C13.1188 21.9785 9.75757 21.621 6.39636 21.192Z" fill="#D9D9D9"/>
</svg>
